<svg width="1575" height="797" viewBox="0 0 1575 797" fill="none" xmlns="http://www.w3.org/2000/svg">
<mask id="mask0_737_1483" style="mask-type:alpha" maskUnits="userSpaceOnUse" x="-25" y="-1" width="1600" height="799">
<path d="M-25 -0.999878H1575V586L-25 797V-0.999878Z" fill="#172755"/>
</mask>
<g mask="url(#mask0_737_1483)">
<g opacity="0.07">
<path d="M1807.47 273.986C1677.93 84.987 1460.44 -38.9998 1214 -38.9998C816.907 -38.9998 495 282.907 495 680C495 737.771 501.814 793.951 514.681 847.779L880.824 481.636C915.922 446.538 972.828 446.538 1007.93 481.636L1303.88 777.585L1807.47 273.986Z" fill="#8794BA"/>
<path d="M1892.93 442.734L1367.43 968.239C1332.33 1003.34 1275.42 1003.34 1240.32 968.239L944.375 672.29L586.104 1030.56C709.1 1250.39 944.195 1399 1214 1399C1611.09 1399 1933 1077.09 1933 680C1933 596.861 1918.89 517.017 1892.93 442.734Z" fill="#8794BA"/>
</g>
</g>
</svg>
