<svg width="560" height="398" viewBox="0 0 560 398" fill="none" xmlns="http://www.w3.org/2000/svg">
<g opacity="0.07">
<path d="M502.387 -118.35C442.929 -205.094 343.11 -262.001 230 -262.001C47.746 -262.001 -100 -114.255 -100 67.9993C-100 94.5144 -96.8727 120.299 -90.9671 145.005L77.0818 -23.0439C93.191 -39.1531 119.309 -39.1531 135.418 -23.0439L271.25 112.788L502.387 -118.35Z" fill="#8794BA"/>
<path d="M541.609 -40.8988L300.418 200.292C284.309 216.402 258.191 216.402 242.082 200.292L106.25 64.4606L-58.186 228.897C-1.73432 329.792 106.168 397.999 230 397.999C412.254 397.999 560 250.253 560 67.9993C560 29.8407 553.523 -6.80507 541.609 -40.8988Z" fill="#8794BA"/>
</g>
</svg>
